<svg xmlns="http://www.w3.org/2000/svg" xmlns:xlink="http://www.w3.org/1999/xlink" version="1.1" id="Layer_1" x="0px" y="0px" width="100px" height="100px" viewBox="0 0 100 100" enable-background="new 0 0 100 100" xml:space="preserve">
<path fill="#000000" d="M50,0C22.43,0,0,22.43,0,50c0,27.57,22.43,50,50,50c27.57,0,50-22.43,50-50C100,22.43,77.57,0,50,0z   M50,94.737C25.332,94.737,5.263,74.669,5.263,50C5.263,25.332,25.332,5.263,50,5.263c24.668,0,44.736,20.068,44.736,44.737  C94.736,74.669,74.668,94.737,50,94.737z"/>
<path fill="#000000" d="M70.702,30.617L38.085,63.233l-8.368-14.546c-0.724-1.259-2.333-1.693-3.593-0.969  c-1.261,0.725-1.693,2.333-0.969,3.593l10.081,17.522c0.113,0.197,0.251,0.369,0.403,0.524c0.008,0.008,0.009,0.017,0.017,0.024  c0.001,0.002,0.004,0.003,0.005,0.004c0.225,0.224,0.491,0.385,0.771,0.512c0.07,0.032,0.137,0.061,0.209,0.085  c0.28,0.1,0.571,0.169,0.87,0.169c0.001,0,0.004,0.002,0.005,0.002c0,0,0,0,0.001,0h0.001c0.293,0,0.583-0.069,0.869-0.17  c0.076-0.027,0.146-0.057,0.22-0.09s0.15-0.05,0.221-0.091c0.104-0.061,0.167-0.157,0.26-0.229c0.094-0.07,0.204-0.106,0.289-0.191  l35.046-35.045c1.028-1.028,1.028-2.693,0-3.721C73.396,29.589,71.73,29.589,70.702,30.617z"/>
</svg>